<svg width="31" height="30" viewBox="0 0 31 30" fill="none" xmlns="http://www.w3.org/2000/svg">
<g clip-path="url(#clip0_57_347)">
<path d="M27.5759 22.329C27.1759 22.5381 26.7634 22.7225 26.3407 22.8809C24.9954 23.3843 23.5702 23.6408 22.1337 23.6379C16.5884 23.6379 11.7579 19.8235 11.7579 14.9286C11.765 14.272 11.9472 13.6293 12.2857 13.0667C12.6241 12.5041 13.1066 12.042 13.6833 11.7282C8.66769 11.9391 7.37863 17.1657 7.37863 20.2278C7.37863 28.8856 15.3579 29.7633 17.0771 29.7633C18.004 29.7633 19.4021 29.4938 20.2411 29.229L20.3946 29.1774C23.6234 28.0612 26.376 25.879 28.1993 22.9899C28.2552 22.9019 28.2801 22.7978 28.2702 22.6941C28.2603 22.5903 28.2161 22.4929 28.1446 22.4171C28.073 22.3413 27.9783 22.2914 27.8753 22.2755C27.7724 22.2595 27.667 22.2783 27.5759 22.329Z" fill="url(#paint0_linear_57_347)"/>
<path opacity="0.35" d="M27.5759 22.329C27.1759 22.5381 26.7634 22.7225 26.3407 22.8809C24.9954 23.3843 23.5702 23.6408 22.1337 23.6379C16.5884 23.6379 11.7579 19.8235 11.7579 14.9286C11.765 14.272 11.9472 13.6293 12.2857 13.0667C12.6241 12.5041 13.1066 12.042 13.6833 11.7282C8.66769 11.9391 7.37863 17.1657 7.37863 20.2278C7.37863 28.8856 15.3579 29.7633 17.0771 29.7633C18.004 29.7633 19.4021 29.4938 20.2411 29.229L20.3946 29.1774C23.6234 28.0612 26.376 25.879 28.1993 22.9899C28.2552 22.9019 28.2801 22.7978 28.2702 22.6941C28.2603 22.5903 28.2161 22.4929 28.1446 22.4171C28.073 22.3413 27.9783 22.2914 27.8753 22.2755C27.7724 22.2595 27.667 22.2783 27.5759 22.329Z" fill="url(#paint1_radial_57_347)"/>
<path d="M12.8876 28.2914C11.8424 27.6427 10.9366 26.7926 10.2228 25.7906C9.40925 24.676 8.84943 23.3969 8.58258 22.0431C8.31573 20.6892 8.34832 19.2934 8.67805 17.9534C9.00779 16.6135 9.62668 15.3619 10.4913 14.2865C11.356 13.2111 12.4455 12.3379 13.6833 11.7281C14.049 11.5558 14.6736 11.2441 15.5044 11.2594C16.0898 11.2636 16.6662 11.4034 17.1885 11.6677C17.7108 11.932 18.1648 12.3137 18.515 12.7828C18.9882 13.4147 19.2491 14.1802 19.2603 14.9695C19.2603 14.9449 22.1267 5.64139 9.88529 5.64139C4.74075 5.64139 0.510286 10.5234 0.510286 14.8066C0.489994 17.0724 0.974786 19.3142 1.92943 21.3691C3.48958 24.6979 6.21785 27.3379 9.59617 28.7877C12.9745 30.2375 16.7676 30.3962 20.2552 29.2336C19.0341 29.6186 17.7439 29.7342 16.4738 29.5723C15.2037 29.4105 13.9837 28.9751 12.8982 28.2961L12.8876 28.2914Z" fill="url(#paint2_linear_57_347)"/>
<path opacity="0.41" d="M12.8876 28.2914C11.8424 27.6427 10.9366 26.7926 10.2228 25.7906C9.40925 24.676 8.84943 23.3969 8.58258 22.0431C8.31573 20.6892 8.34832 19.2934 8.67805 17.9534C9.00779 16.6135 9.62668 15.3619 10.4913 14.2865C11.356 13.2111 12.4455 12.3379 13.6833 11.7281C14.049 11.5558 14.6736 11.2441 15.5044 11.2594C16.0898 11.2636 16.6662 11.4034 17.1885 11.6677C17.7108 11.932 18.1648 12.3137 18.515 12.7828C18.9882 13.4147 19.2491 14.1802 19.2603 14.9695C19.2603 14.9449 22.1267 5.64139 9.88529 5.64139C4.74075 5.64139 0.510286 10.5234 0.510286 14.8066C0.489994 17.0724 0.974786 19.3142 1.92943 21.3691C3.48958 24.6979 6.21785 27.3379 9.59617 28.7877C12.9745 30.2375 16.7676 30.3962 20.2552 29.2336C19.0341 29.6186 17.7439 29.7342 16.4738 29.5723C15.2037 29.4105 13.9837 28.9751 12.8982 28.2961L12.8876 28.2914Z" fill="url(#paint3_radial_57_347)"/>
<path d="M18.3485 17.4445C18.2536 17.5676 17.9618 17.7375 17.9618 18.1078C17.9618 18.4137 18.161 18.7078 18.5149 18.9551C20.2 20.1269 23.377 19.9723 23.3852 19.9723C24.6339 19.9693 25.8589 19.6313 26.9325 18.9937C28.0155 18.3614 28.9144 17.4568 29.5399 16.3697C30.1655 15.2827 30.4959 14.051 30.4985 12.7969C30.5289 10.1707 29.561 8.42461 29.1696 7.65117C26.6864 2.79375 21.3262 7.34346e-08 15.4973 7.34346e-08C11.5553 -0.000389715 7.77166 1.55097 4.9646 4.31856C2.15754 7.08614 0.552748 10.8475 0.497314 14.7891C0.553564 10.507 4.80981 7.04883 9.87231 7.04883C10.2825 7.04883 12.6215 7.08867 14.7942 8.2289C16.709 9.23437 17.7122 10.4484 18.4094 11.652C19.1336 12.9023 19.2625 14.482 19.2625 15.1113C19.2625 15.7406 18.9415 16.6734 18.3485 17.4445Z" fill="url(#paint4_radial_57_347)"/>
<path d="M18.3485 17.4445C18.2536 17.5676 17.9618 17.7375 17.9618 18.1078C17.9618 18.4137 18.161 18.7078 18.5149 18.9551C20.2 20.1269 23.377 19.9723 23.3852 19.9723C24.6339 19.9693 25.8589 19.6313 26.9325 18.9937C28.0155 18.3614 28.9144 17.4568 29.5399 16.3697C30.1655 15.2827 30.4959 14.051 30.4985 12.7969C30.5289 10.1707 29.561 8.42461 29.1696 7.65117C26.6864 2.79375 21.3262 7.34346e-08 15.4973 7.34346e-08C11.5553 -0.000389715 7.77166 1.55097 4.9646 4.31856C2.15754 7.08614 0.552748 10.8475 0.497314 14.7891C0.553564 10.507 4.80981 7.04883 9.87231 7.04883C10.2825 7.04883 12.6215 7.08867 14.7942 8.2289C16.709 9.23437 17.7122 10.4484 18.4094 11.652C19.1336 12.9023 19.2625 14.482 19.2625 15.1113C19.2625 15.7406 18.9415 16.6734 18.3485 17.4445Z" fill="url(#paint5_radial_57_347)"/>
</g>
<defs>
<linearGradient id="paint0_linear_57_347" x1="7.37863" y1="20.7481" x2="28.2778" y2="20.7481" gradientUnits="userSpaceOnUse">
<stop stop-color="#0C59A4"/>
<stop offset="1" stop-color="#114A8B"/>
</linearGradient>
<radialGradient id="paint1_radial_57_347" cx="0" cy="0" r="1" gradientUnits="userSpaceOnUse" gradientTransform="translate(18.9216 20.9128) scale(11.1773 10.6185)">
<stop offset="0.72" stop-opacity="0"/>
<stop offset="0.95" stop-opacity="0.53"/>
<stop offset="1"/>
</radialGradient>
<linearGradient id="paint2_linear_57_347" x1="18.3966" y1="11.6824" x2="5.34309" y2="25.9008" gradientUnits="userSpaceOnUse">
<stop stop-color="#1B9DE2"/>
<stop offset="0.16" stop-color="#1595DF"/>
<stop offset="0.67" stop-color="#0680D7"/>
<stop offset="1" stop-color="#0078D4"/>
</linearGradient>
<radialGradient id="paint3_radial_57_347" cx="0" cy="0" r="1" gradientUnits="userSpaceOnUse" gradientTransform="translate(8.77019 23.3213) rotate(-81.3844) scale(16.8078 13.579)">
<stop offset="0.76" stop-opacity="0"/>
<stop offset="0.95" stop-opacity="0.5"/>
<stop offset="1"/>
</radialGradient>
<radialGradient id="paint4_radial_57_347" cx="0" cy="0" r="1" gradientUnits="userSpaceOnUse" gradientTransform="translate(3.52807 5.55197) rotate(92.2906) scale(23.7412 50.5639)">
<stop stop-color="#35C1F1"/>
<stop offset="0.11" stop-color="#34C1ED"/>
<stop offset="0.23" stop-color="#2FC2DF"/>
<stop offset="0.31" stop-color="#2BC3D2"/>
<stop offset="0.67" stop-color="#36C752"/>
</radialGradient>
<radialGradient id="paint5_radial_57_347" cx="0" cy="0" r="1" gradientUnits="userSpaceOnUse" gradientTransform="translate(28.6308 9.07103) rotate(73.7398) scale(11.407 9.27619)">
<stop stop-color="#66EB6E"/>
<stop offset="1" stop-color="#66EB6E" stop-opacity="0"/>
</radialGradient>
<clipPath id="clip0_57_347">
<rect width="30" height="30" fill="white" transform="translate(0.5)"/>
</clipPath>
</defs>
</svg>
