<svg width="32" height="31" viewBox="0 0 32 31" fill="none" xmlns="http://www.w3.org/2000/svg">
<path d="M0.659091 12V0.363636H7.68182V1.61364H2.06818V5.54545H7.31818V6.79545H2.06818V10.75H7.77273V12H0.659091ZM19.4489 0.363636V12H18.0852L11.7443 2.86364H11.6307V12H10.2216V0.363636H11.5852L17.9489 9.52273H18.0625V0.363636H19.4489ZM30.223 4C30.098 3.61742 29.9332 3.27462 29.7287 2.97159C29.5279 2.66477 29.2874 2.40341 29.0071 2.1875C28.7306 1.97159 28.4162 1.80682 28.0639 1.69318C27.7116 1.57955 27.3253 1.52273 26.9048 1.52273C26.2154 1.52273 25.5885 1.70076 25.0241 2.05682C24.4598 2.41288 24.0109 2.9375 23.6776 3.63068C23.3442 4.32386 23.1776 5.17424 23.1776 6.18182C23.1776 7.18939 23.3461 8.03977 23.6832 8.73295C24.0204 9.42614 24.4768 9.95076 25.0526 10.3068C25.6283 10.6629 26.276 10.8409 26.9957 10.8409C27.6624 10.8409 28.2495 10.6989 28.7571 10.4148C29.2685 10.1269 29.6662 9.72159 29.9503 9.19886C30.2382 8.67235 30.3821 8.05303 30.3821 7.34091L30.8139 7.43182H27.3139V6.18182H31.7457V7.43182C31.7457 8.39015 31.5412 9.22348 31.1321 9.93182C30.7268 10.6402 30.1662 11.1894 29.4503 11.5795C28.7382 11.9659 27.92 12.1591 26.9957 12.1591C25.9654 12.1591 25.0601 11.9167 24.2798 11.4318C23.5033 10.947 22.8973 10.2576 22.4616 9.36364C22.0298 8.4697 21.8139 7.40909 21.8139 6.18182C21.8139 5.26136 21.937 4.43371 22.1832 3.69886C22.4332 2.96023 22.7855 2.33144 23.2401 1.8125C23.6946 1.29356 24.2325 0.895833 24.8537 0.619318C25.4749 0.342803 26.1586 0.204545 26.9048 0.204545C27.5185 0.204545 28.0904 0.297348 28.6207 0.482954C29.1548 0.664772 29.6302 0.924242 30.0469 1.26136C30.4673 1.5947 30.8177 1.99432 31.098 2.46023C31.3783 2.92235 31.5715 3.43561 31.6776 4H30.223ZM10.6776 19.3636V31H9.26847V19.3636H10.6776ZM22.7301 19.3636V31H21.3665L15.0256 21.8636H14.9119V31H13.5028V19.3636H14.8665L21.2301 28.5227H21.3438V19.3636H22.7301Z" fill="white"/>
</svg>
