<svg width="20" height="20" viewBox="0 0 20 20" fill="none" xmlns="http://www.w3.org/2000/svg">
<path d="M16.8322 7.38331C17.2416 7.7927 17.6285 8.2608 17.9652 8.74874C18.1221 8.97601 18.065 9.28741 17.8377 9.44426C17.6105 9.60112 17.2991 9.54403 17.1422 9.31676C16.8391 8.87752 16.4907 8.45604 16.1251 8.09041C12.7621 4.72735 7.30945 4.72735 3.94638 8.09041C3.59814 8.43865 3.25355 8.86 2.93937 9.31289C2.78197 9.53978 2.47044 9.59611 2.24355 9.43871C2.01666 9.28131 1.96032 8.96978 2.11773 8.74289C2.46419 8.24347 2.84611 7.77647 3.23928 7.38331C6.99286 3.62972 13.0786 3.62972 16.8322 7.38331ZM14.5966 9.35675C15.0689 9.82908 15.4784 10.4028 15.7904 11.0128C15.9161 11.2587 15.8187 11.5599 15.5729 11.6856C15.327 11.8114 15.0258 11.714 14.9001 11.4682C14.6343 10.9485 14.2856 10.46 13.8894 10.0639C11.7611 7.93552 8.31039 7.93552 6.18205 10.0639C5.76868 10.4772 5.43272 10.9422 5.17411 11.4535C5.04947 11.6999 4.74868 11.7986 4.50226 11.674C4.25585 11.5494 4.15713 11.2486 4.28177 11.0022C4.58801 10.3967 4.98639 9.84531 5.47495 9.35675C7.99381 6.83788 12.0777 6.83788 14.5966 9.35675ZM12.8876 11.8539C13.2418 12.2082 13.5338 12.644 13.7369 13.1076C13.8478 13.3605 13.7326 13.6554 13.4797 13.7662C13.2267 13.8771 12.9318 13.7619 12.821 13.509C12.6667 13.1567 12.4445 12.825 12.1805 12.561C10.996 11.3765 9.07553 11.3765 7.89103 12.561C7.62833 12.8237 7.41552 13.1429 7.25997 13.4984C7.14927 13.7514 6.85445 13.8668 6.60147 13.7561C6.34848 13.6454 6.23313 13.3506 6.34383 13.0976C6.54796 12.6311 6.83029 12.2075 7.18392 11.8539C8.75894 10.2789 11.3126 10.2789 12.8876 11.8539ZM10.9629 13.7865C11.47 14.2936 11.47 15.1157 10.9629 15.6228C10.4558 16.1298 9.63373 16.1298 9.12666 15.6228C8.6196 15.1157 8.6196 14.2936 9.12666 13.7865C9.63373 13.2795 10.4558 13.2795 10.9629 13.7865Z" fill="white"/>
</svg>
